<svg width="89" height="17" fill="none" xmlns="http://www.w3.org/2000/svg"><path fill-rule="evenodd" clip-rule="evenodd" d="M5.147 16.832L6.21 13.74h6.39l1.062 3.093h4.39L11.805 0H7.053L.805 16.832h4.342zm6.393-6.21H7.27l2.147-6.234 2.123 6.234zm16.222 5.659c-.764.463-1.652.695-2.665.695-1.544 0-2.77-.511-3.679-1.534-.909-1.024-1.363-2.43-1.363-4.22v-7.77h4.101v7.266c0 .911.237 1.618.712 2.122.474.503 1.113.755 1.917.755.837 0 1.496-.264 1.979-.791.482-.528.723-1.279.723-2.254V3.453h4.15v13.38h-4.15V14.41a4.456 4.456 0 01-1.725 1.87zm13.449.551v-6.09c0-1.103.301-1.886.904-2.35.604-.463 1.452-.695 2.545-.695h1.183V3.309c-.95 0-1.83.24-2.642.72a5.837 5.837 0 00-1.99 1.941V3.453h-4.125v13.38h4.125zm16.85-.66c-1.054.552-2.248.828-3.583.828-1.334 0-2.532-.276-3.594-.827a6.067 6.067 0 01-2.497-2.386c-.603-1.039-.904-2.254-.904-3.645 0-1.39.301-2.605.904-3.644a6.066 6.066 0 012.497-2.386c1.062-.551 2.26-.827 3.594-.827 1.335 0 2.53.276 3.583.827a6.085 6.085 0 012.484 2.386c.603 1.039.905 2.254.905 3.644 0 1.391-.302 2.606-.905 3.645a6.086 6.086 0 01-2.484 2.386zm-3.583-2.745c-.788 0-1.451-.28-1.99-.839-.538-.56-.808-1.375-.808-2.445 0-1.072.27-1.89.808-2.458a2.636 2.636 0 011.99-.851c.788 0 1.448.283 1.978.85.531.568.796 1.387.796 2.458 0 1.071-.265 1.887-.796 2.446-.53.56-1.19.84-1.978.84zm13.847-2.685v6.09H64.2V3.452h4.125V5.97a5.837 5.837 0 011.99-1.942 5.104 5.104 0 012.642-.72v4.389h-1.182c-1.094 0-1.942.232-2.546.695-.603.464-.904 1.247-.904 2.35zM80.41 17c1.03 0 1.914-.232 2.654-.695a4.188 4.188 0 001.64-1.895v2.422h4.101V3.452h-4.1v2.422a4.198 4.198 0 00-1.641-1.894c-.74-.463-1.624-.695-2.654-.695-1.11 0-2.102.276-2.979.827-.876.552-1.568 1.343-2.074 2.374-.507 1.03-.76 2.25-.76 3.657 0 1.39.253 2.605.76 3.644.506 1.039 1.198 1.834 2.074 2.386.877.551 1.87.827 2.98.827zm-.808-4.46c.54.576 1.25.863 2.135.863.869 0 1.58-.295 2.135-.887.555-.591.832-1.383.832-2.373 0-1.008-.277-1.803-.832-2.386-.555-.584-1.266-.875-2.135-.875-.884 0-1.596.287-2.135.863-.538.575-.808 1.374-.808 2.397 0 1.024.27 1.823.808 2.398z" fill="#333"/></svg>