<svg width="112" height="29" fill="none" xmlns="http://www.w3.org/2000/svg"><g filter="url(#filter0_d)"><path fill-rule="evenodd" clip-rule="evenodd" d="M9.132 22.013l1.254-3.678h7.555l1.254 3.678h5.189L17 2h-5.616L4 22.013h5.132zm7.554-7.384H11.64l2.538-7.412 2.508 7.412zm19.173 6.729c-.903.55-1.953.826-3.15.826-1.825 0-3.274-.608-4.348-1.824-1.074-1.217-1.611-2.89-1.611-5.018V6.105h4.846v8.638c0 1.084.28 1.925.841 2.523.561.6 1.317.899 2.267.899.988 0 1.767-.314 2.338-.941.57-.628.855-1.52.855-2.68V6.105H42.8v15.908h-4.903v-2.88a5.285 5.285 0 01-2.038 2.225zm15.893.655v-7.241c0-1.312.357-2.243 1.07-2.794.712-.551 1.714-.827 3.007-.827h1.397V5.934a6.004 6.004 0 00-3.122.855 6.918 6.918 0 00-2.352 2.31V6.105h-4.875v15.908h4.875zm19.914-.784c-1.245.656-2.656.984-4.234.984-1.578 0-2.993-.328-4.248-.984a7.188 7.188 0 01-2.95-2.837c-.713-1.235-1.07-2.68-1.07-4.333s.357-3.098 1.07-4.333a7.188 7.188 0 012.95-2.837c1.255-.655 2.67-.983 4.248-.983 1.578 0 2.989.328 4.234.983a7.21 7.21 0 012.936 2.837c.713 1.235 1.07 2.68 1.07 4.333 0 1.654-.357 3.098-1.07 4.333a7.21 7.21 0 01-2.936 2.837zm-4.234-3.264c-.931 0-1.715-.333-2.352-.998-.637-.665-.955-1.634-.955-2.908 0-1.273.318-2.247.955-2.922.637-.675 1.42-1.012 2.352-1.012.931 0 1.71.337 2.338 1.012.627.675.94 1.649.94 2.922 0 1.274-.313 2.243-.94 2.908s-1.407.998-2.338.998zm17.433-5.987c-.713.551-1.069 1.482-1.069 2.794v7.241h-4.875V6.105h4.875V9.1a6.917 6.917 0 012.352-2.31c.96-.57 2-.855 3.122-.855v5.217h-1.397c-1.293 0-2.295.276-3.008.827zM98.08 22.213c1.216 0 2.262-.276 3.136-.827a4.978 4.978 0 001.939-2.252v2.88H108V6.104h-4.846v2.88a4.978 4.978 0 00-1.939-2.253c-.874-.55-1.92-.826-3.136-.826-1.311 0-2.485.328-3.52.983-1.037.656-1.854 1.597-2.453 2.823-.598 1.226-.898 2.675-.898 4.347 0 1.654.3 3.098.898 4.333.599 1.236 1.416 2.181 2.452 2.837 1.036.656 2.21.984 3.52.984zm-.955-5.303c.637.684 1.478 1.026 2.523 1.026 1.026 0 1.867-.351 2.523-1.054.656-.704.984-1.644.984-2.823 0-1.197-.328-2.143-.984-2.836-.656-.694-1.497-1.041-2.523-1.041-1.045 0-1.886.342-2.523 1.026-.637.684-.955 1.635-.955 2.851 0 1.217.318 2.167.955 2.851z" fill="#fff"/></g><defs><filter id="filter0_d" x="0" y="0" width="112" height="28.213" filterUnits="userSpaceOnUse" color-interpolation-filters="sRGB"><feFlood flood-opacity="0" result="BackgroundImageFix"/><feColorMatrix in="SourceAlpha" values="0 0 0 0 0 0 0 0 0 0 0 0 0 0 0 0 0 0 127 0"/><feOffset dy="2"/><feGaussianBlur stdDeviation="2"/><feColorMatrix values="0 0 0 0 0 0 0 0 0 0 0 0 0 0 0 0 0 0 0.08 0"/><feBlend in2="BackgroundImageFix" result="effect1_dropShadow"/><feBlend in="SourceGraphic" in2="effect1_dropShadow" result="shape"/></filter></defs></svg>