<svg width="16" height="16" fill="none" xmlns="http://www.w3.org/2000/svg"><path fill-rule="evenodd" clip-rule="evenodd" d="M15.944 4.701c-.06-1.282-.354-2.417-1.292-3.352C13.717.413 12.582.12 11.3.056c-1.32-.075-5.28-.075-6.6 0-1.278.06-2.413.354-3.352 1.29C.41 2.28.12 3.415.056 4.697c-.075 1.32-.075 5.28 0 6.6.06 1.283.354 2.418 1.292 3.353.94.936 2.07 1.229 3.352 1.293 1.32.075 5.28.075 6.6 0 1.281-.06 2.416-.354 3.352-1.293.935-.935 1.228-2.07 1.292-3.352.075-1.321.075-5.277 0-6.598zm-3.673-.014a.957.957 0 100-1.914.957.957 0 000 1.914zM8 3.897A4.095 4.095 0 003.902 8 4.095 4.095 0 008 12.102 4.095 4.095 0 0012.104 8a4.095 4.095 0 00-4.101-4.102zm0 6.77A2.672 2.672 0 015.336 8a2.67 2.67 0 012.667-2.667A2.67 2.67 0 0110.668 8c0 1.47-1.2 2.667-2.666 2.667zm4.716 3.57a2.7 2.7 0 001.52-1.52c.359-.901.339-2.87.326-4.147-.002-.212-.004-.404-.004-.57 0-.166.002-.358.004-.57.013-1.276.033-3.243-.325-4.146a2.7 2.7 0 00-1.521-1.521c-.903-.357-2.881-.338-4.157-.325l-.558.003c-.166 0-.358-.001-.57-.004-1.276-.013-3.242-.032-4.145.326a2.7 2.7 0 00-1.521 1.52c-.356.904-.337 2.883-.325 4.159.002.207.004.396.004.558 0 .166-.002.358-.004.57-.013 1.276-.033 3.243.325 4.146a2.7 2.7 0 001.52 1.521c.903.357 2.882.338 4.158.325l.558-.003c.165 0 .358.002.57.004 1.275.012 3.242.032 4.145-.326z" fill="#000"/></svg>