<svg width="16" height="15" fill="none" xmlns="http://www.w3.org/2000/svg"><path d="M15.964 11.76c-.163.378-.851.656-2.105.85-.065.087-.118.458-.203.747-.051.174-.176.276-.38.276h-.009c-.293 0-.6-.134-1.214-.134-.829 0-1.114.188-1.758.641-.682.481-1.336.896-2.313.854-.989.073-1.813-.527-2.277-.854-.648-.456-.932-.642-1.758-.642-.59 0-.96.148-1.214.148a.371.371 0 01-.388-.282c-.085-.286-.138-.663-.204-.752-.646-.1-2.103-.354-2.14-1.002a.331.331 0 01.277-.345c2.174-.357 3.154-2.583 3.194-2.678l.008-.016c.116-.235.142-.431.077-.584-.158-.371-.84-.504-1.127-.617-.74-.292-.844-.627-.8-.857.076-.4.679-.646 1.031-.482.279.13.526.196.736.196a.64.64 0 00.311-.067c-.064-1.12-.222-2.72.178-3.614C4.941.186 7.178.003 7.838.003L8.154 0c1.63 0 3.196.835 3.96 2.544.4.893.242 2.487.178 3.615.05.028.136.061.269.067.2-.009.432-.074.69-.195a.848.848 0 01.64.002c.297.106.483.319.488.557.005.304-.267.566-.809.78a3.85 3.85 0 01-.232.078c-.306.097-.769.244-.894.539-.066.152-.04.349.076.584l.008.016c.04.094 1.02 2.32 3.194 2.678.201.033.35.245.242.494z" fill="#000"/></svg>