<svg width="17" height="14" xmlns="http://www.w3.org/2000/svg"><path d="M15.253 3.489c.01.153.01.306.01.46C15.263 8.618 11.758 14 5.35 14A9.748 9.748 0 010 12.414c.28.033.55.044.841.044a6.917 6.917 0 004.326-1.51 3.497 3.497 0 01-3.258-2.45 3.66 3.66 0 001.575-.065A3.521 3.521 0 01.69 4.966v-.044a3.473 3.473 0 001.575.448A3.543 3.543 0 01.712 2.428c0-.656.172-1.258.475-1.783A9.86 9.86 0 008.37 4.342a4.042 4.042 0 01-.087-.81C8.284 1.587 9.838 0 11.768 0c1.004 0 1.91.427 2.546 1.116a6.802 6.802 0 002.211-.853 3.515 3.515 0 01-1.531 1.946A6.91 6.91 0 0017 1.663a7.548 7.548 0 01-1.747 1.826z"/></svg>