<svg width="112" height="29" viewBox="0 0 112 29" fill="none" xmlns="http://www.w3.org/2000/svg">
<g filter="url(#filter0_d)">
<path fill-rule="evenodd" clip-rule="evenodd" d="M9.13158 22.0132L10.386 18.3355H17.9408L19.1952 22.0132H24.3838L17 2H11.3838L4 22.0132H9.13158ZM16.6864 14.6294H11.6404L14.1776 7.21711L16.6864 14.6294ZM35.8586 21.3575C34.9558 21.9086 33.9057 22.1842 32.7083 22.1842C30.8838 22.1842 29.4346 21.576 28.3607 20.3596C27.2869 19.1433 26.75 17.4708 26.75 15.3421V6.10526H31.5965V14.7434C31.5965 15.8268 31.8768 16.6678 32.4375 17.2664C32.9982 17.8651 33.7537 18.1645 34.7039 18.1645C35.6923 18.1645 36.4715 17.8509 37.0417 17.2237C37.6118 16.5965 37.8969 15.7032 37.8969 14.5439V6.10526H42.8004V22.0132H37.8969V19.1338C37.4408 20.0651 36.7613 20.8063 35.8586 21.3575ZM51.7522 22.0132V14.7719C51.7522 13.4605 52.1086 12.5292 52.8213 11.9781C53.534 11.4269 54.5365 11.1513 55.8289 11.1513H57.2259V5.93421C56.1045 5.93421 55.064 6.2193 54.1042 6.78947C53.1444 7.35965 52.3604 8.12939 51.7522 9.09868V6.10526H46.8772V22.0132H51.7522ZM71.6656 21.2292C70.4207 21.8849 69.0095 22.2127 67.432 22.2127C65.8545 22.2127 64.4386 21.8849 63.1842 21.2292C61.9298 20.5735 60.9463 19.6279 60.2336 18.3925C59.5208 17.1572 59.1645 15.7127 59.1645 14.0592C59.1645 12.4057 59.5208 10.9613 60.2336 9.72588C60.9463 8.4905 61.9298 7.54496 63.1842 6.88925C64.4386 6.23355 65.8545 5.9057 67.432 5.9057C69.0095 5.9057 70.4207 6.23355 71.6656 6.88925C72.9105 7.54496 73.8893 8.4905 74.602 9.72588C75.3147 10.9613 75.6711 12.4057 75.6711 14.0592C75.6711 15.7127 75.3147 17.1572 74.602 18.3925C73.8893 19.6279 72.9105 20.5735 71.6656 21.2292ZM67.432 17.9649C66.5007 17.9649 65.7167 17.6323 65.08 16.9671C64.4433 16.3019 64.125 15.3326 64.125 14.0592C64.125 12.7858 64.4433 11.8118 65.08 11.1371C65.7167 10.4624 66.5007 10.125 67.432 10.125C68.3633 10.125 69.1425 10.4624 69.7697 11.1371C70.3969 11.8118 70.7105 12.7858 70.7105 14.0592C70.7105 15.3326 70.3969 16.3019 69.7697 16.9671C69.1425 17.6323 68.3633 17.9649 67.432 17.9649ZM84.8651 11.9781C84.1524 12.5292 83.7961 13.4605 83.7961 14.7719V22.0132H78.9211V6.10526H83.7961V9.09868C84.4042 8.12939 85.1882 7.35965 86.148 6.78947C87.1078 6.2193 88.1484 5.93421 89.2697 5.93421V11.1513H87.8728C86.5804 11.1513 85.5779 11.4269 84.8651 11.9781ZM98.0789 22.2127C99.2953 22.2127 100.341 21.9371 101.215 21.386C102.089 20.8348 102.735 20.0841 103.154 19.1338V22.0132H108V6.10526H103.154V8.98465C102.735 8.03436 102.089 7.28363 101.215 6.73246C100.341 6.18129 99.2953 5.9057 98.0789 5.9057C96.7675 5.9057 95.5939 6.23355 94.5581 6.88925C93.5223 7.54496 92.705 8.48575 92.1064 9.71162C91.5077 10.9375 91.2083 12.3867 91.2083 14.0592C91.2083 15.7127 91.5077 17.1572 92.1064 18.3925C92.705 19.6279 93.5223 20.5735 94.5581 21.2292C95.5939 21.8849 96.7675 22.2127 98.0789 22.2127ZM97.1239 16.9101C97.7606 17.5943 98.6016 17.9364 99.6469 17.9364C100.673 17.9364 101.514 17.5848 102.17 16.8816C102.826 16.1784 103.154 15.2376 103.154 14.0592C103.154 12.8618 102.826 11.9163 102.17 11.2226C101.514 10.5289 100.673 10.182 99.6469 10.182C98.6016 10.182 97.7606 10.5241 97.1239 11.2083C96.4872 11.8925 96.1689 12.8428 96.1689 14.0592C96.1689 15.2756 96.4872 16.2259 97.1239 16.9101Z" fill="white"/>
</g>
<defs>
<filter id="filter0_d" x="0" y="0" width="112" height="28.2127" filterUnits="userSpaceOnUse" color-interpolation-filters="sRGB">
<feFlood flood-opacity="0" result="BackgroundImageFix"/>
<feColorMatrix in="SourceAlpha" type="matrix" values="0 0 0 0 0 0 0 0 0 0 0 0 0 0 0 0 0 0 127 0"/>
<feOffset dy="2"/>
<feGaussianBlur stdDeviation="2"/>
<feColorMatrix type="matrix" values="0 0 0 0 0 0 0 0 0 0 0 0 0 0 0 0 0 0 0.08 0"/>
<feBlend mode="normal" in2="BackgroundImageFix" result="effect1_dropShadow"/>
<feBlend mode="normal" in="SourceGraphic" in2="effect1_dropShadow" result="shape"/>
</filter>
</defs>
</svg>
